<?xml version="1.0" encoding="UTF-8"?>
<svg id="Layer_1" data-name="Layer 1" xmlns="http://www.w3.org/2000/svg" viewBox="0 0 2048 2208">
  <defs>
    <style>
      .cls-1 {
        fill: #d19b2e;
      }

      .cls-2 {
        fill: #463223;
      }

      .cls-3 {
        fill: #bd811a;
      }

      .cls-4 {
        fill: #fff;
      }

      .cls-5 {
        fill: #e7d2a9;
      }

      .cls-6 {
        fill: #80884f;
      }

      .cls-7 {
        fill: #ce5738;
      }

      .cls-8 {
        fill: #e1b569;
      }
    </style>
  </defs>
  <rect class="cls-5" x="-1455.6" y="-138.1" width="6043.5" height="2099.8"/>
  <path class="cls-8" d="M4434.8,924.4l.6,1371.2-5737.5,2.3-.6-1369.5h.9c22.1,0,22.1-9.5,44.2-9.5,22.1,0,22.1,9.5,44.2,9.5,22.1,0,22.1-9.5,44.2-9.5,22.1,0,22.1,9.5,44.2,9.5,22.1,0,22.1-9.5,44.2-9.5,22.1,0,22.1,9.5,44.2,9.5,22.1,0,22.1-9.5,44.2-9.5,22.1,0,22.1,9.5,44.2,9.5,22.1,0,22.1-9.5,44.2-9.5s22.1,9.5,44.2,9.5c22.1,0,22.1-9.5,44.2-9.5,22.1,0,22.1,9.5,44.2,9.5s22.1-9.5,44.2-9.5,22.1,9.5,44.2,9.5c22.1,0,22.1-9.5,44.2-9.5,22.1,0,22.1,9.5,44.2,9.5,22.1,0,22.1-9.5,44.2-9.5,22.1,0,22.1,9.5,44.2,9.5,22.1,0,22.1-9.5,44.2-9.5s22.1,9.5,44.2,9.5c22.1,0,22.1-9.5,44.2-9.5,22.1,0,22.1,9.5,44.2,9.5,22.1,0,22.1-9.5,44.2-9.5,22.1,0,22.1,9.5,44.2,9.5s22.1-9.5,44.2-9.5,22.1,9.5,44.2,9.5,22.1-9.5,44.2-9.5c22.1,0,22.1,9.5,44.2,9.5s22.1-9.5,44.2-9.5c22.1,0,22.1,9.5,44.2,9.5,22.1,0,22.1-9.5,44.2-9.5s22.1,9.5,44.2,9.5c22.1,0,22.1-9.5,44.2-9.5,22.1,0,22.1,9.5,44.2,9.5,22.1,0,22.1-9.5,44.2-9.5s22.1,9.5,44.2,9.5c22.1,0,22.1-9.5,44.2-9.5,22.1,0,22.1,9.5,44.2,9.5,22.1,0,22.1-9.5,44.2-9.5,22.1,0,22.1,9.5,44.2,9.5,22.1,0,22.1-9.5,44.2-9.5,22.1,0,22.1,9.5,44.2,9.5,22.1,0,22.1-9.5,44.2-9.5,22.1,0,22.1,9.5,44.2,9.5s22.1-9.5,44.2-9.5c22.1,0,22.1,9.5,44.2,9.5,22.1,0,22.1-9.5,44.2-9.5,22.1,0,22.1,9.5,44.2,9.5,22.1,0,22.1-9.5,44.2-9.5,22.1,0,22.1,9.5,44.2,9.5,22.1,0,22.1-9.5,44.2-9.5s22.1,9.5,44.2,9.5,22.1-9.5,44.2-9.5c22.1,0,22.1,9.5,44.2,9.5,22.1,0,22.1-9.5,44.2-9.5s22.1,9.5,44.2,9.5c22.1,0,22.1-9.5,44.2-9.5,22.1,0,22.1,9.5,44.2,9.5,22.1,0,22.1-9.5,44.2-9.5,22.1,0,22.1,9.5,44.2,9.5,22.1,0,22.1-9.5,44.2-9.5,22.1,0,22.1,9.5,44.2,9.5,22.1,0,22.1-9.5,44.2-9.5,22.1,0,22.1,9.5,44.2,9.5,22.1,0,22.1-9.5,44.2-9.5,22.1,0,22.1,9.5,44.2,9.5,22.1,0,22.1-9.5,44.2-9.5s22.1,9.5,44.2,9.5,22.1-9.5,44.2-9.5c22.1,0,22.1,9.5,44.2,9.5,22.1,0,22.1-9.5,44.2-9.5,22.1,0,22.1,9.5,44.2,9.5,22.1,0,22.1-9.5,44.2-9.5,22.1,0,22.1,9.5,44.2,9.5,22.1,0,22.1-9.5,44.2-9.5,22.1,0,22.1,9.5,44.2,9.5,22.1,0,22.1-9.5,44.2-9.5s22.1,9.5,44.2,9.5c22.1,0,22.1-9.5,44.2-9.5,22.1,0,22.1,9.5,44.2,9.5,22.1,0,22.1-9.5,44.2-9.5,22.1,0,22.1,9.5,44.2,9.5s22.1-9.5,44.2-9.5c22.1,0,22.1,9.5,44.2,9.5,22.1,0,22.1-9.5,44.2-9.5s22.1,9.5,44.2,9.5c22.1,0,22.1-9.5,44.2-9.5s22.1,9.5,44.2,9.5c22.1,0,22.1-9.5,44.2-9.5,22.1,0,22.1,9.5,44.2,9.5,22.1,0,22.1-9.5,44.2-9.5s22.1,9.5,44.2,9.5c22.1,0,22.1-9.5,44.2-9.5,22.1,0,22.1,9.5,44.2,9.5s22.1-9.5,44.2-9.5c22.1,0,22.1,9.5,44.2,9.5,22.1,0,22.1-9.5,44.2-9.5,22.1,0,22.1,9.5,44.2,9.5,22.1,0,22.1-9.5,44.2-9.5,22.1,0,22.1,9.5,44.2,9.5,22.1,0,22.1-9.5,44.2-9.5s22.1,9.5,44.2,9.5c22.1,0,22.1-9.5,44.2-9.5,22.1,0,22.1,9.5,44.2,9.5,22.1,0,22.1-9.5,44.2-9.5,22.1,0,22.1,9.5,44.2,9.5,22.1,0,22.1-9.5,44.2-9.5,22.1,0,22.1,9.5,44.2,9.5s22.1-9.5,44.2-9.5c22.1,0,22.1,9.5,44.2,9.5,22.1,0,22.1-9.5,44.2-9.5,22.1,0,22.1,9.5,44.2,9.5s22.1-9.5,44.2-9.5c22.1,0,22.1,9.5,44.2,9.5,22.1,0,22.1-9.5,44.2-9.5,22.1,0,22.1,9.5,44.2,9.5,22.1,0,22.1-9.5,44.2-9.5,22.1,0,22.1,9.5,44.2,9.5,22.1,0,22.1-9.5,44.2-9.5,22.1,0,22.1,9.5,44.2,9.5,22.1,0,22.1-9.5,44.2-9.5,22.1,0,22.1,9.5,44.2,9.5s22.1-9.5,44.2-9.5c22.1,0,22.1,9.5,44.2,9.5,22.1,0,22.1-9.5,44.2-9.5,22.1,0,22.1,9.5,44.2,9.5,22.1,0,22.1-9.5,44.2-9.5,22.1,0,22.1,9.5,44.2,9.5s22.1-9.5,44.2-9.5c16.1,0,20.5,5,30.1,7.7Z"/>
  <path class="cls-1" d="M4434.9,1118.8l.5,1197-5737.5,2.3-.5-1195.2h.9c22.1,0,22.1-9.5,44.2-9.5,22.1,0,22.1,9.5,44.2,9.5,22.1,0,22.1-9.5,44.2-9.5,22.1,0,22.1,9.5,44.2,9.5,22.1,0,22.1-9.5,44.2-9.5,22.1,0,22.1,9.5,44.2,9.5,22.1,0,22.1-9.5,44.2-9.5,22.1,0,22.1,9.5,44.2,9.5,22.1,0,22.1-9.5,44.2-9.5,22.1,0,22.1,9.5,44.2,9.5,22.1,0,22.1-9.5,44.2-9.5,22.1,0,22.1,9.5,44.2,9.5,22.1,0,22.1-9.5,44.2-9.5,22.1,0,22.1,9.5,44.2,9.5,22.1,0,22.1-9.5,44.2-9.5,22.1,0,22.1,9.5,44.2,9.5,22.1,0,22.1-9.5,44.2-9.5,22.1,0,22.1,9.5,44.2,9.5s22.1-9.5,44.2-9.5c22.1,0,22.1,9.5,44.2,9.5s22.1-9.5,44.2-9.5c22.1,0,22.1,9.5,44.2,9.5,22.1,0,22.1-9.5,44.2-9.5,22.1,0,22.1,9.5,44.2,9.5,22.1,0,22.1-9.5,44.2-9.5,22.1,0,22.1,9.5,44.2,9.5,22.1,0,22.1-9.5,44.2-9.5,22.1,0,22.1,9.5,44.2,9.5s22.1-9.5,44.2-9.5c22.1,0,22.1,9.5,44.2,9.5,22.1,0,22.1-9.5,44.2-9.5,22.1,0,22.1,9.5,44.2,9.5,22.1,0,22.1-9.5,44.2-9.5,22.1,0,22.1,9.5,44.2,9.5,22.1,0,22.1-9.5,44.2-9.5s22.1,9.5,44.2,9.5c22.1,0,22.1-9.5,44.2-9.5,22.1,0,22.1,9.5,44.2,9.5,22.1,0,22.1-9.5,44.2-9.5,22.1,0,22.1,9.5,44.2,9.5s22.1-9.5,44.2-9.5,22.1,9.5,44.2,9.5c22.1,0,22.1-9.5,44.2-9.5,22.1,0,22.1,9.5,44.2,9.5,22.1,0,22.1-9.5,44.2-9.5,22.1,0,22.1,9.5,44.2,9.5,22.1,0,22.1-9.5,44.2-9.5,22.1,0,22.1,9.5,44.2,9.5,22.1,0,22.1-9.5,44.2-9.5,22.1,0,22.1,9.5,44.2,9.5,22.1,0,22.1-9.5,44.2-9.5s22.1,9.5,44.2,9.5c22.1,0,22.1-9.5,44.2-9.5,22.1,0,22.1,9.5,44.2,9.5,22.1,0,22.1-9.5,44.2-9.5,22.1,0,22.1,9.5,44.2,9.5,22.1,0,22.1-9.5,44.2-9.5,22.1,0,22.1,9.5,44.2,9.5,22.1,0,22.1-9.5,44.2-9.5,22.1,0,22.1,9.5,44.2,9.5,22.1,0,22.1-9.5,44.2-9.5,22.1,0,22.1,9.5,44.2,9.5,22.1,0,22.1-9.5,44.2-9.5,22.1,0,22.1,9.5,44.2,9.5,22.1,0,22.1-9.5,44.2-9.5,22.1,0,22.1,9.5,44.2,9.5,22.1,0,22.1-9.5,44.2-9.5,22.1,0,22.1,9.5,44.2,9.5s22.1-9.5,44.2-9.5c22.1,0,22.1,9.5,44.2,9.5,22.1,0,22.1-9.5,44.2-9.5,22.1,0,22.1,9.5,44.2,9.5,22.1,0,22.1-9.5,44.2-9.5,22.1,0,22.1,9.5,44.2,9.5,22.1,0,22.1-9.5,44.2-9.5,22.1,0,22.1,9.5,44.2,9.5,22.1,0,22.1-9.5,44.2-9.5,22.1,0,22.1,9.5,44.2,9.5,22.1,0,22.1-9.5,44.2-9.5s22.1,9.5,44.2,9.5c22.1,0,22.1-9.5,44.2-9.5,22.1,0,22.1,9.5,44.2,9.5s22.1-9.5,44.2-9.5c22.1,0,22.1,9.5,44.2,9.5,22.1,0,22.1-9.5,44.2-9.5,22.1,0,22.1,9.5,44.2,9.5,22.1,0,22.1-9.5,44.2-9.5,22.1,0,22.1,9.5,44.2,9.5s22.1-9.5,44.2-9.5c22.1,0,22.1,9.5,44.2,9.5,22.1,0,22.1-9.5,44.2-9.5s22.1,9.5,44.2,9.5c22.1,0,22.1-9.5,44.2-9.5,22.1,0,22.1,9.5,44.2,9.5s22.1-9.5,44.2-9.5c22.1,0,22.1,9.5,44.2,9.5,22.1,0,22.1-9.5,44.2-9.5,22.1,0,22.1,9.5,44.2,9.5,22.1,0,22.1-9.5,44.2-9.5,22.1,0,22.1,9.5,44.2,9.5,22.1,0,22.1-9.5,44.2-9.5s22.1,9.5,44.2,9.5,22.1-9.5,44.2-9.5,22.1,9.5,44.2,9.5c22.1,0,22.1-9.5,44.2-9.5,22.1,0,22.1,9.5,44.2,9.5,22.1,0,22.1-9.5,44.2-9.5,22.1,0,22.1,9.5,44.2,9.5s22.1-9.5,44.2-9.5c22.1,0,22.1,9.5,44.2,9.5,22.1,0,22.1-9.5,44.2-9.5,22.1,0,22.1,9.5,44.2,9.5s22.1-9.5,44.2-9.5c22.1,0,22.1,9.5,44.2,9.5,22.1,0,22.1-9.5,44.2-9.5,22.1,0,22.1,9.5,44.2,9.5,22.1,0,22.1-9.5,44.2-9.5,22.1,0,22.1,9.5,44.2,9.5,22.1,0,22.1-9.5,44.2-9.5,22.1,0,22.1,9.5,44.2,9.5,22.1,0,22.1-9.5,44.2-9.5,22.1,0,22.1,9.5,44.2,9.5s22.1-9.5,44.2-9.5c22.1,0,22.1,9.5,44.2,9.5s22.1-9.5,44.2-9.5c22.1,0,22.1,9.5,44.2,9.5,22.1,0,22.1-9.5,44.2-9.5,22.1,0,22.1,9.5,44.2,9.5s22.1-9.5,44.2-9.5,20.5,5,30.1,7.7Z"/>
  <path class="cls-3" d="M4434.9,1263l.4,1022.7-5737.5,2.3-.4-1020.9h.9c22.1,0,22.1-9.5,44.2-9.5,22.1,0,22.1,9.5,44.2,9.5,22.1,0,22.1-9.5,44.2-9.5,22.1,0,22.1,9.5,44.2,9.5,22.1,0,22.1-9.5,44.2-9.5,22.1,0,22.1,9.5,44.2,9.5,22.1,0,22.1-9.5,44.2-9.5,22.1,0,22.1,9.5,44.2,9.5,22.1,0,22.1-9.5,44.2-9.5,22.1,0,22.1,9.5,44.2,9.5,22.1,0,22.1-9.5,44.2-9.5,22.1,0,22.1,9.5,44.2,9.5,22.1,0,22.1-9.5,44.2-9.5,22.1,0,22.1,9.5,44.2,9.5,22.1,0,22.1-9.5,44.2-9.5,22.1,0,22.1,9.5,44.2,9.5,22.1,0,22.1-9.5,44.2-9.5,22.1,0,22.1,9.5,44.2,9.5,22.1,0,22.1-9.5,44.2-9.5,22.1,0,22.1,9.5,44.2,9.5,22.1,0,22.1-9.5,44.2-9.5,22.1,0,22.1,9.5,44.2,9.5s22.1-9.5,44.2-9.5c22.1,0,22.1,9.5,44.2,9.5,22.1,0,22.1-9.5,44.2-9.5,22.1,0,22.1,9.5,44.2,9.5,22.1,0,22.1-9.5,44.2-9.5,22.1,0,22.1,9.5,44.2,9.5,22.1,0,22.1-9.5,44.2-9.5,22.1,0,22.1,9.5,44.2,9.5,22.1,0,22.1-9.5,44.2-9.5,22.1,0,22.1,9.5,44.2,9.5s22.1-9.5,44.2-9.5c22.1,0,22.1,9.5,44.2,9.5s22.1-9.5,44.2-9.5c22.1,0,22.1,9.5,44.2,9.5,22.1,0,22.1-9.5,44.2-9.5,22.1,0,22.1,9.5,44.2,9.5s22.1-9.5,44.2-9.5c22.1,0,22.1,9.5,44.2,9.5s22.1-9.5,44.2-9.5c22.1,0,22.1,9.5,44.2,9.5,22.1,0,22.1-9.5,44.2-9.5,22.1,0,22.1,9.5,44.2,9.5,22.1,0,22.1-9.5,44.2-9.5,22.1,0,22.1,9.5,44.2,9.5,22.1,0,22.1-9.5,44.2-9.5,22.1,0,22.1,9.5,44.2,9.5s22.1-9.5,44.2-9.5c22.1,0,22.1,9.5,44.2,9.5,22.1,0,22.1-9.5,44.2-9.5s22.1,9.5,44.2,9.5c22.1,0,22.1-9.5,44.2-9.5,22.1,0,22.1,9.5,44.2,9.5,22.1,0,22.1-9.5,44.2-9.5,22.1,0,22.1,9.5,44.2,9.5,22.1,0,22.1-9.5,44.2-9.5,22.1,0,22.1,9.5,44.2,9.5s22.1-9.5,44.2-9.5c22.1,0,22.1,9.5,44.2,9.5,22.1,0,22.1-9.5,44.2-9.5,22.1,0,22.1,9.5,44.2,9.5,22.1,0,22.1-9.5,44.2-9.5,22.1,0,22.1,9.5,44.2,9.5,22.1,0,22.1-9.5,44.2-9.5,22.1,0,22.1,9.5,44.2,9.5,22.1,0,22.1-9.5,44.2-9.5,22.1,0,22.1,9.5,44.2,9.5,22.1,0,22.1-9.5,44.2-9.5,22.1,0,22.1,9.5,44.2,9.5,22.1,0,22.1-9.5,44.2-9.5,22.1,0,22.1,9.5,44.2,9.5s22.1-9.5,44.2-9.5c22.1,0,22.1,9.5,44.2,9.5s22.1-9.5,44.2-9.5c22.1,0,22.1,9.5,44.2,9.5,22.1,0,22.1-9.5,44.2-9.5,22.1,0,22.1,9.5,44.2,9.5,22.1,0,22.1-9.5,44.2-9.5s22.1,9.5,44.2,9.5c22.1,0,22.1-9.5,44.2-9.5,22.1,0,22.1,9.5,44.2,9.5s22.1-9.5,44.2-9.5c22.1,0,22.1,9.5,44.2,9.5,22.1,0,22.1-9.5,44.2-9.5,22.1,0,22.1,9.5,44.2,9.5,22.1,0,22.1-9.5,44.2-9.5,22.1,0,22.1,9.5,44.2,9.5s22.1-9.5,44.2-9.5,22.1,9.5,44.2,9.5c22.1,0,22.1-9.5,44.2-9.5s22.1,9.5,44.2,9.5,22.1-9.5,44.2-9.5c22.1,0,22.1,9.5,44.2,9.5,22.1,0,22.1-9.5,44.2-9.5,22.1,0,22.1,9.5,44.2,9.5,22.1,0,22.1-9.5,44.2-9.5,22.1,0,22.1,9.5,44.2,9.5,22.1,0,22.1-9.5,44.2-9.5,22.1,0,22.1,9.5,44.2,9.5,22.1,0,22.1-9.5,44.2-9.5,22.1,0,22.1,9.5,44.2,9.5s22.1-9.5,44.2-9.5c22.1,0,22.1,9.5,44.2,9.5,22.1,0,22.1-9.5,44.2-9.5,22.1,0,22.1,9.5,44.2,9.5,22.1,0,22.1-9.5,44.2-9.5,22.1,0,22.1,9.5,44.2,9.5s22.1-9.5,44.2-9.5c22.1,0,22.1,9.5,44.2,9.5,22.1,0,22.1-9.5,44.2-9.5s22.1,9.5,44.2,9.5c22.1,0,22.1-9.5,44.2-9.5s22.1,9.5,44.2,9.5c22.1,0,22.1-9.5,44.2-9.5,22.1,0,22.1,9.5,44.2,9.5,22.1,0,22.1-9.5,44.2-9.5,22.1,0,22.1,9.5,44.2,9.5,22.1,0,22.1-9.5,44.2-9.5,22.1,0,22.1,9.5,44.2,9.5,22.1,0,22.1-9.5,44.2-9.5,22.1,0,22.1,9.5,44.2,9.5s22.1-9.5,44.2-9.5,22.1,9.5,44.2,9.5c22.1,0,22.1-9.5,44.2-9.5,22.1,0,22.1,9.5,44.2,9.5,22.1,0,22.1-9.5,44.2-9.5,22.1,0,22.1,9.5,44.2,9.5,22.1,0,22.1-9.5,44.2-9.5s20.5,5,30.1,7.7Z"/>
  <circle class="cls-4" cx="421" cy="281.8" r="174.9"/>
  <path class="cls-6" d="M2925.6,1202.8c-10.5-3.1-14.9-12.3-25.5-15.3-10.5-2.9-23.7,3.8-34.4,1-10.6-2.8-18.7-15.2-29.4-17.9-10.6-2.7-23.6,4.5-34.3,2-10.6-2.5-19.1-14.7-29.9-17.1-10.7-2.4-23.5,5.1-34.3,2.9-10.7-2.2-19.5-14.2-30.3-16.2-10.8-2.1-23.4,5.8-34.2,3.9-10.8-1.9-19.9-13.6-30.8-15.4-10.8-1.8-23.2,6.4-34.1,4.8-10.8-1.6-20.3-13-31.2-14.5s-23,7.1-33.9,5.8c-10.9-1.3-20.7-12.5-31.6-13.6-10.9-1.1-22.8,7.8-33.7,6.8s-21-11.8-32-12.7-22.6,8.4-33.5,7.8c-11-.6-21.4-11.2-32.4-11.7s-22.3,9.1-33.2,8.8-21.7-10.5-32.7-10.6c-11-.1-22,9.8-32.9,9.9-11,0-22.1-9.8-33.1-9.5-11,.2-21.6,10.6-32.6,11s-22.4-9-33.4-8.4-21.2,11.3-32.2,12.2-22.7-8.2-33.7-7.2c-10.9,1-20.8,12.1-31.7,13.4s-23-7.3-33.9-5.8-20.3,12.9-31.1,14.6c-10.9,1.7-23.3-6.4-34.1-4.4-10.8,1.9-19.7,13.8-30.5,16s-23.6-5.3-34.3-2.9-17.8,14.3-27.7,16.6c-10.1,2.3-22.3-5.1-32.1-2.8-10.1,2.4-17.7,14.5-27.5,16.8s-22.4-4.9-32.2-2.5-17.5,14.6-27.3,17.1c-10,2.5-22.4-4.7-32.2-2.2s-17.4,14.8-27.2,17.3c-10,2.6-22.4-4.5-32.2-2s-17.4,14.8-27.2,17.4c-10,2.6-22.4-4.5-32.2-1.9s-17.3,14.8-27.2,17.4-22.3-4.6-32.2-2c-9.9,2.5-17.4,14.7-27.3,17.2-9.9,2.5-22.3-4.8-32.2-2.3s-17.5,14.5-27.5,16.9-22.1-5.1-32.1-2.8c-9.9,2.3-17.7,14.2-27.7,16.4-9.9,2.2-22-5.5-32.1-3.4-10,2-18,13.9-28.1,15.8s-21.8-6-32-4.2-18.3,13.4-28.5,15.1-21.6-6.6-31.8-5c-10,1.5-18.6,12.9-28.9,14.3-10,1.4-21.4-7.2-31.7-5.9-10,1.3-19,12.4-29.2,13.6s-21.2-7.7-31.5-6.7-19.3,11.9-29.6,12.8c-10,.9-21-8.2-31.4-7.5s-19.5,11.5-29.9,12.1-20.9-8.7-31.2-8.1-19.8,11-30.1,11.5c-10.2.5-20.6-9.3-30.5-9.1s-20.3,10.1-30.2,9.9-19.9-10.6-29.8-11.1c-10.2-.5-20.9,8.8-30.8,8-10.1-.8-19.2-11.8-29.1-12.9-10.1-1.1-21.3,7.6-31.2,6.2-10-1.4-18.5-12.8-28.4-14.3-10-1.6-21.5,6.6-31.4,4.9-9.9-1.7-18-13.4-27.9-15.2-9.9-1.8-21.6,6.1-31.5,4.2-9.8-1.9-17.8-13.6-27.8-15.6s-21.6,6-31.5,4.1-17.9-13.5-27.9-15.3c-9.8-1.8-21.4,6.4-31.5,4.7-9.8-1.6-18.1-13.1-28.2-14.7s-21.2,7-31.3,5.6c-9.8-1.3-18.6-12.5-28.7-13.7s-20.9,7.7-31.1,6.7c-9.8-1-19-11.8-29.2-12.6-9.9-.8-20.6,8.5-30.8,8s-19.5-11-29.7-11.4c-9.9-.4-20.2,9.4-30.5,9.2s-19.9-10.3-30.1-10.3c-9.9,0-19.9,10.1-30.1,10.3s-20.2-9.5-30.5-9.2c-9.9.4-19.5,10.8-29.7,11.3-9.9.5-20.5-8.9-30.7-8.2s-19.2,11.4-29.4,12.2-20.8-8.3-31-7.3c-9.9.9-18.9,11.9-29,13-9.9,1.1-21-7.7-31.2-6.5-8.6,1.1-16.3,12.1-25.5,13.3-8.7,1.1-18.9-7.5-28.1-6.3s-16.2,12.4-25.3,13.7-19.1-7.3-28.1-6-16.1,12.5-25.2,13.9-19.2-7.2-28.2-5.8c-8.8,1.4-16.1,12.6-25.1,14s-19.2-7.1-28.2-5.7c-8.8,1.4-16.2,12.6-25.1,14s-19.2-7.1-28.2-5.7-16.2,12.6-25.1,14c-8.8,1.4-19.2-7.2-28.2-5.8-8.9,1.3-16.3,12.6-25.2,13.9s-19.2-7.2-28.1-5.9c-8.9,1.3-16.3,12.5-25.2,13.8s-19.2-7.4-28.1-6.1-16.4,12.4-25.3,13.6-19.2-7.5-28.1-6.3c-8.9,1.2-16.6,12.2-25.5,13.4s-19.1-7.7-28-6.6-16.7,12.1-25.6,13.1-19-7.9-27.9-7c-9,1-16.9,11.8-25.8,12.7-9,.9-18.9-8.2-27.8-7.4-9,.8-17.1,11.5-26,12.3s-18.8-8.6-27.6-8-17.4,11.2-26.3,11.7-18.6-9-27.4-8.7-17.8,10.7-26.6,10.9-18.3-9.6-27.1-9.6-18.2,10-27,9.9-21-10.4-31.3-10.8c-10.7-.4-21.6,9.2-31.9,8.7s-20.6-11.1-30.9-11.8-21.9,8.5-32.2,7.6-20.2-11.9-30.5-12.9c-10.7-1.1-22.2,7.6-32.5,6.4s-19.7-12.6-29.9-14.1-22.5,6.8-32.7,5.1-19.2-13.4-29.4-15.2-22.7,5.9-32.9,3.9c-10.5-2.1-18.7-14-28.9-16.2-10.4-2.2-22.8,5.3-33,3s-18.4-14.4-28.5-16.8-22.8,4.9-33,2.5-18.2-14.6-28.4-17-22.7,5-33,2.7-18.4-14.3-28.7-16.5-22.5,5.5-32.9,3.5-18.8-13.7-29.2-15.5c-10.3-1.7-22.2,6.5-32.7,5s-19.4-12.8-30-14-21.8,7.7-32.4,6.7-20-11.7-30.7-12.3-21.3,8.9-32,8.5c-10.3-.3-20.6-10.5-31.3-10.6s-20.7,10-31.5,10.2c-10.3.2-21.1-9.4-31.9-9s-20.2,11-30.9,11.7c-10.3.7-21.5-8.5-32.2-7.5s-19.8,11.9-30.4,13-21.8-7.6-32.5-6.3-20.7,12.7-31.4,14-23.2-7.1-33.9-5.8c-11.1,1.4-20.7,12.8-31.3,14.1-11.1,1.4-23.3-7-33.9-5.6-11.1,1.5-20.7,12.8-31.3,14.2s-23.3-7-33.9-5.5-20.7,12.9-31.3,14.3-23.3-6.9-33.9-5.5-20.7,12.9-31.3,14.3c-11.2,1.5-23.3-7-33.9-5.6s-20.7,12.8-31.3,14.1c-11.2,1.4-23.3-7.1-33.9-5.8-11.1,1.4-20.8,12.6-31.5,13.8-11.1,1.3-23.1-7.5-33.8-6.4s-21,12.1-31.8,13.1-22.8-8.1-33.6-7.3-21.3,11.4-32.2,12-22.3-9-33.3-8.6-21.6,10.6-32.7,10.7c-10.8.1-21.7-9.9-32.9-10s-21.9,9.7-33.1,9.3c-10.7-.3-21.3-10.7-32.5-11.2s-22.1,8.9-33.4,8.2-20.9-11.4-32.1-12.2-22.3,8.3-33.6,7.4c-10.6-.9-20.7-11.8-31.9-12.9-10.6-1-22.5,7.9-33.7,6.8s-20.5-12.2-31.7-13.3c-10.6-1.1-22.6,7.6-33.8,6.4-10.6-1.2-20.4-12.4-31.5-13.7s-22.7,7.4-33.8,6.1-19.9-12.5-30.9-13.9c-10.4-1.3-22.4,7.3-33.4,5.9s-19.9-12.6-30.8-14.1-22.5,7.2-33.4,5.8-20-12.7-30.8-14.1c-10.6-1.4-22.5,7.2-33.4,5.8-10.6-1.3-20-12.6-30.9-14s-22.5,7.3-33.4,5.9c-10.6-1.3-20.1-12.5-30.9-13.8s-22.5,7.4-33.3,6.2-20.3-12.4-31.1-13.6-22.5,7.6-33.3,6.5-20.4-12.2-31.2-13.2c-10.7-1.1-22.4,7.8-33.2,6.8s-20.6-11.9-31.4-12.9-22.3,8.1-33.1,7.3c-10.8-.8-20.8-11.6-31.5-12.4s-22.2,8.5-33,7.9c-10.8-.7-21-11.3-31.8-11.8s-22.1,8.9-32.8,8.5c-10.9-.4-21.3-10.8-32-11.1-10.9-.3-21.9,9.5-32.6,9.4-10.9-.1-21.6-10.2-32.3-10.2s-21.6,10.2-32.3,10.4-22-9.4-32.7-9-21.2,11-31.8,11.7c-11,.7-22.5-8.4-33.1-7.4-11,1-20.6,12.2-31.1,13.5-10.9,1.4-23.1-6.9-33.5-5.1-10.9,1.9-19.6,13.7-29.9,16-10.9,2.4-27.2-1.2-37.3,1.7-4.4,15.1,9.8,17.1,9.8,32.8s-10,15.7-10,31.4,10,15.7,10,31.4-10,15.7-10,31.4,10,15.7,10,31.4-10,15.7-10,31.4,10,15.7,10,31.4-10,15.7-10,31.4,10,15.7,10,31.4-10,15.7-10,31.4,10,15.7,10,31.4-10,15.7-10,31.4,10,15.7,10,31.4-10,15.7-10,31.4,10,15.7,10,31.4-10,15.7-10,31.4,10,15.7,10,31.4-10,15.7-10,31.4,10,15.7,10,31.4-10,15.7-10,31.4,10,15.7,10,31.4-10,15.7-10,31.4,10,15.7,10,31.4-10,15.7-10,31.4,10,15.7,10,31.4-10,15.7-10,31.4,10,15.7,10,31.4-10,15.7-10,31.4,10,15.7,10,31.4-10,15.7-10,31.4-9.8,24.2,5.7,26.4c106.6,15.5,107,9.9,214.7,9.9,107.7,0,107.7-10,215.4-10.1,107.7,0,107.7,10,215.4,9.9,107.7,0,107.7-10,215.4-10.1s107.7,10,215.4,9.9c107.7,0,107.7-10,215.4-10.1,107.7,0,107.7,10,215.4,9.9s107.7-10,215.4-10.1c107.7,0,107.7,10,215.4,9.9,107.7,0,107.7-10,215.4-10.1,107.7,0,107.7,10,215.4,9.9,107.7,0,107.7-10,215.4-10.1,107.7,0,107.7,10,215.4,9.9,107.7,0,107.7-10,215.4-10.1,107.7,0,107.7,10,215.4,9.9,107.7,0,107.7-10,215.4-10.1,107.7,0,107.7,10,215.4,9.9,107.7,0,107.7-10,215.4-10.1,107.7,0,107.7,10,215.4,9.9,107.7,0,107.7-10,215.4-10.1,107.7,0,107.7,10,215.4,9.9,107.7,0,107.7-10,215.4-10.1,107.7,0,107.7,10,215.4,9.9,107.7,0,107.7-10,215.4-10.1,107.7,0,107.7,10,215.4,9.9,107.7,0,107.7-10,215.4-10.1,107.7,0,107.7,10,215.4,9.9,107.7,0,107.7-10,215.4-10.1,107.7,0,107.7,10,215.4,9.9s107.7-10,215.4-10.1,109.8,26.3,216.2,9.9c16.4-2.5-5.8-21.6-5.8-38.2s10-16.7,10-33.3c0-16.6-10-16.6-10-33.3,0-16.6,10-16.7,10-33.3s-10-16.6-10-33.3c0-16.6,10-16.6,10-33.3s-10-16.6-10-33.3,10-16.6,10-33.3-10-16.6-10-33.3,10-16.7,10-33.3-10-16.6-10-33.3c0-16.6,10-16.6,10-33.3s-10-16.6-10-33.3,10-16.6,10-33.3c0-16.6-10-16.6-10-33.3,0-16.6,10-16.7,10-33.3,0-16.6-10-16.6-10-33.3,0-16.6,10-16.7,10-33.3s-10-16.6-10-33.3,10-16.7,10-33.3-10-16.6-10-33.3,10-16.7,10-33.3-10-16.6-10-33.3,10-16.6,10-33.3-10-16.6-10-33.3,10-16.7,10-33.3c0-16.6-10-16.6-10-33.3s10-16.7,10-33.3c0-16.6-10-16.6-10-33.3s10.1-16.7,10-33.3-5.2-15.9-9.8-31.9Z"/>
  <path class="cls-7" d="M4517.8,1623.3c-11,1.7-18.2-4.3-28.6-2.8s-20.4,12.9-30.8,14.3-23-7.3-33.4-6.1-20.9,12.2-31.3,13.1-22.7-8.2-33.1-7.5c-11.2.7-21.5,11.2-32,11.5s-22.2-9.5-32.6-9.5c-11.2,0-22.2,9.8-32.7,9.3s-21.3-11.1-31.8-12c-11.1-.9-22.8,7.9-33.3,6.6s-20.1-12.9-30.7-14.6c-10.7-1.8-23.1,6-33.7,3.9-10.5-2.1-19-14.2-29.7-16.6s-23.1,5-33.9,2.5c-10.3-2.4-18.5-14.6-29.4-17.1-10.2-2.4-23,5-33.9,2.6-10.2-2.3-18.7-14.3-29.6-16.6s-22.8,5.6-33.8,3.5c-10.3-1.9-19.1-13.7-30.2-15.6-10.3-1.8-22.6,6.4-33.6,4.7s-19.6-13-30.7-14.5-22.4,7.1-33.5,5.8c-10.4-1.3-20-12.4-31.1-13.6s-22.2,7.8-33.3,6.8-20.4-11.8-31.5-12.7-22,8.4-33.1,7.6c-10.5-.7-20.7-11.4-31.8-12-10.6-.6-21.9,8.8-32.9,8.3s-21-10.9-32-11.4c-10.6-.4-21.7,9.2-32.8,8.9s-21.2-10.6-32.2-10.8-19.7,9.7-29.2,9.6-19.6-10-29.1-9.9-19.4,10.4-28.8,10.7-20-9.2-29.5-8.7-18.9,11.2-28.4,11.9-20.4-8.3-29.9-7.4-18.4,12-27.8,13.2c-9.8,1.2-20.8-7.4-30.2-5.9-9.8,1.5-17.7,12.9-27.1,14.6-9.7,1.7-21.1-6.3-30.4-4.4-9.7,2-17,13.8-26.4,15.9s-21.3-5.3-30.6-3-16.4,14.5-25.7,17c-9.5,2.5-21.4-4.5-30.7-1.9s-16,14.9-25.2,17.6-21.4-4.2-30.7-1.5c-9.3,2.7-15.8,15-25.1,17.7s-21.3-4.3-30.7-1.7-16,14.8-25.5,17.2-21.1-4.9-30.6-2.6-16.5,14.2-26.1,16.3-20.8-5.8-30.5-4c-9.4,1.8-17.1,13.3-26.9,14.9-9.4,1.5-20.5-6.9-30.3-5.5-9.4,1.3-17.8,12.4-27.6,13.5-9.4,1.1-20.1-7.9-29.9-7.1-9.5.8-18.4,11.5-28.3,12.1-9.5.6-19.7-8.9-29.6-8.5s-18.9,10.6-28.8,10.8-19.3-9.8-29.2-9.8-19.3,9.9-29.2,9.6-17.2-10.5-26-10.9-18.1,9.1-26.9,8.4c-8.7-.6-16.6-11.3-25.4-12.1s-18.4,8.3-27.2,7.4c-8.7-.9-16.3-11.8-25-12.9s-18.6,7.8-27.4,6.6c-8.6-1.1-16-12.2-24.7-13.4-8.6-1.2-18.7,7.5-27.5,6.2s-15.8-12.4-24.6-13.7c-8.6-1.3-18.8,7.3-27.5,6-8.6-1.3-15.8-12.5-24.5-13.8s-18.8,7.3-27.5,6-15.8-12.5-24.6-13.8c-8.6-1.3-18.7,7.4-27.5,6.1-8.6-1.2-15.9-12.3-24.7-13.6-8.6-1.2-18.6,7.6-27.4,6.4s-16.1-12.2-24.8-13.2c-8.6-1.1-18.5,7.8-27.3,6.8s-16.2-11.9-25.1-12.9c-8.6-.9-18.4,8.1-27.2,7.3s-16.5-11.6-25.3-12.4c-8.7-.8-18.2,8.5-27.1,7.8s-16.7-11.3-25.5-11.9-18.1,8.8-26.9,8.3-16.9-10.9-25.8-11.4-17.9,9.2-26.7,8.9c-8.7-.3-17.2-10.6-26-10.8-8.7-.2-17.7,9.6-26.5,9.5-8.7-.1-17.4-10.2-26.2-10.2-8.7,0-17.5,10-26.3,10.1-8.7,0-17.6-9.8-26.5-9.6-8.8.2-17.3,10.4-26.1,10.6-8.8.3-17.9-9.4-26.7-9s-17.1,10.8-25.8,11.2-18.1-9-26.9-8.5c-8.8.5-16.9,11.1-25.6,11.7s-18.3-8.7-27-8c-8.8.7-16.7,11.4-25.4,12.2s-18.4-8.3-27.2-7.5-16.5,11.7-25.2,12.6c-8.7.9-18.5-8.1-27.3-7.1-8.7,1-16.3,11.9-25,12.9s-18.6-7.8-27.3-6.8-16.2,12.1-24.9,13.2-18.7-7.7-27.4-6.5-16.1,12.2-24.8,13.4c-8.7,1.2-18.8-7.5-27.4-6.3-8.7,1.2-16,12.3-24.7,13.6s-18.8-7.4-27.5-6.2-16,12.4-24.7,13.6c-8.7,1.2-18.8-7.4-27.5-6.2s-16,12.4-24.7,13.6c-8.7,1.2-18.8-7.4-27.5-6.2s-16,12.4-24.7,13.6c-8.7,1.2-18.8-7.5-27.5-6.3s-16,12.3-24.8,13.4-18.7-7.6-27.4-6.5-16.1,12.2-24.9,13.3-18.6-7.8-27.4-6.7c-8.7,1-16.3,12-25,13s-18.5-8-27.3-7c-8.7.9-16.4,11.8-25.2,12.7-9.6,1-20.2-8.1-29.8-7.2s-18.4,11.6-28.1,12.3c-9.6.7-20-8.6-29.6-7.9s-18.7,11.2-28.4,11.7c-9.6.5-19.8-9-29.4-8.6-9.6.4-19,10.7-28.6,11-9.7.3-19.5-9.5-29.2-9.3-9.7.2-19.2,10.3-28.9,10.3s-19.3-9.9-29-10c-9.7,0-19.4,9.8-29.1,9.7s-19.1-10.4-28.8-10.6c-9.7-.3-19.7,9.4-29.3,9-9.7-.4-18.9-10.8-28.5-11.3s-19.9,9-29.5,8.4c-9.7-.6-18.6-11.2-28.2-11.9s-20.1,8.5-29.7,7.7c-9.6-.8-18.4-11.6-28-12.6-9.6-.9-20.3,8-29.9,7-9.6-1-18.1-12.1-27.7-13.2s-20.4,7.6-30,6.3-17.8-12.5-27.4-13.9c-9.6-1.4-20.6,7.1-30.2,5.6-9.6-1.5-17.5-12.9-27-14.5s-20.8,6.6-30.3,4.9-17.2-13.3-26.6-15.2-21,6.1-30.4,4.1-16.8-13.8-26.2-15.9-21.1,5.5-30.5,3.3c-9.4-2.2-16.5-14.2-25.8-16.6s-21.3,4.9-30.6,2.5c-9.4-2.5-16.1-14.7-25.3-17.3-8.7-2.5-20.2,4.7-28.8,2.2s-14.5-14.7-23.1-17.3-20.2,4.3-28.8,1.6-14.2-15-22.8-17.7-20.3,3.9-28.8,1.1-14-15.2-22.5-18.1c-8.6-2.9-20.3,3.6-28.8.7s-13.8-15.4-22.3-18.3-20.4,3.4-28.8.4-13.7-15.5-22.1-18.5c-8.5-3-20.4,3.3-28.8.3-8.5-3.1-13.6-15.5-22.1-18.6-8.5-3-20.4,3.3-28.8.3s-13.6-15.5-22.1-18.5-20.3,3.4-28.8.4c-8.5-3-13.7-15.4-22.3-18.3s-20.3,3.6-28.8.7c-8.5-2.9-13.9-15.2-22.5-18s-20.2,3.9-28.8,1.2c-8.6-2.7-14.2-15-22.8-17.6s-20.1,4.3-28.8,1.7c-8.6-2.6-14.5-14.7-23.2-17.1-8.6-2.5-20,4.8-28.7,2.4s-14.8-14.3-23.6-16.6-19.9,5.3-28.7,3.2c-8.7-2.1-15.2-13.9-24.1-15.9s-19.7,5.8-28.6,4-15.6-13.5-24.5-15.2c-8.8-1.7-19.5,6.4-28.4,4.8s-16-13-24.9-14.5-19.3,7-28.3,5.6c-10.1-1.5-18.9-12.9-29-14.2s-21.5,7.4-31.7,6.2c-10.2-1.1-19.4-12.1-29.6-13.1-10.2-.9-21.2,8.2-31.5,7.4-10.2-.8-19.8-11.4-30-12s-21,8.9-31.2,8.5c-10.2-.4-20.1-10.8-30.4-11s-20.7,9.6-30.9,9.4c-10.2-.1-20.5-10.1-30.7-10.1-10.2,0-20.4,10.1-30.6,10.3-10.2.2-20.7-9.6-31-9.3s-20.1,10.7-30.4,11.1c-10.2.4-21-9.1-31.2-8.5s-19.9,11.1-30.1,11.8c-10.2.7-21.1-8.6-31.4-7.8s-19.6,11.6-29.8,12.4c-10.2.9-21.3-8.2-31.5-7.2-10.2,1-19.4,11.9-29.6,13s-21.5-7.8-31.6-6.7-19.2,12.2-29.4,13.5-21.6-7.5-31.7-6.2c-10.2,1.3-19.1,12.5-29.2,13.9s-21.7-7.2-31.8-5.8-18.9,12.7-29.1,14.2-21.7-7-31.9-5.5c-10.1,1.5-18.8,12.9-28.9,14.4s-21.8-6.8-31.9-5.2-18.7,13-28.8,14.6c-10.1,1.6-21.8-6.7-31.9-5s-18.7,13.1-28.8,14.8c-10.1,1.6-25.9-3-35.9-1.4-4.6,15.9,9.9,17.9,9.9,34.5s-9.9,16.6-9.9,33.1,10.1,16.5,10.1,33.1-9.9,16.6-9.9,33.1c0,16.5,10.1,16.5,10.1,33.1,0,16.5-9.9,16.6-9.9,33.1s10.1,16.5,10.1,33.1-9.9,16.6-9.9,33.1,10.1,16.5,10.1,33.1-9.9,16.6-9.9,33.1,10.1,16.5,10.1,33.1-9.9,16.6-9.9,33.1,10.1,16.5,10.1,33.1-9.9,16.6-9.9,33.1,10.1,16.5,10.1,33.1-9.9,16.6-9.9,33.1,10.1,16.5,10.1,33.1-9.9,16.6-9.9,33.1,10.1,16.5,10.1,33.1-9.9,16.6-9.9,33.1,10.1,16.5,10.1,33.1-9.9,16.6-9.9,33.1,10.1,16.5,10.1,33.1c0,16.5-9.9,16.6-9.9,33.1s10.1,16.5,10.1,33.1-9.9,16.6-9.9,33.1,10.1,16.5,10.1,33.1-9.9,16.6-9.9,33.1,10.1,16.5,10.1,33.1-9.9,16.6-9.9,33.1-10.4,25.5,5.9,28.1c100.1,16.5,100.7,10.1,202.1,10.3,101.5.2,101.5-9.8,203-9.7,101.5.2,101.5,10.2,202.9,10.3,101.5.2,101.5-9.8,203-9.7,101.5.2,101.5,10.2,202.9,10.3,101.5.2,101.5-9.8,203-9.7,101.5.2,101.5,10.2,202.9,10.3,101.5.2,101.5-9.8,203-9.7,101.5.2,101.5,10.2,202.9,10.3,101.5.2,101.5-9.8,203-9.7s101.5,10.2,202.9,10.3,101.5-9.8,203-9.7c101.5.2,101.5,10.2,202.9,10.3,101.5.2,101.5-9.8,203-9.7,101.5.2,101.5,10.2,202.9,10.3,101.5.2,101.5-9.8,203-9.7,101.5.2,101.5,10.2,202.9,10.3,101.5.2,101.5-9.8,203-9.7,101.5.2,101.5,10.2,202.9,10.3,101.5.2,101.5-9.8,203-9.7,101.5.2,101.5,10.2,202.9,10.3,101.5.2,101.5-9.8,203-9.7,101.5.2,101.5,10.2,202.9,10.3,101.5.2,101.5-9.8,203-9.7,101.5.2,101.5,10.2,202.9,10.3,101.5.2,101.5-9.8,203-9.7s101.5,10.2,202.9,10.3c101.5.2,101.5-9.8,203-9.7,101.5.2,101.5,10.2,202.9,10.3,101.5.2,101.5-9.8,203-9.7s103.1,24,203.6,10.3c13.7-1.9-8-17.8-10.4-31.4-2.4-13.7,7.5-15.4,5.1-29s-12.2-11.9-14.6-25.6c-2.4-13.7,7.5-15.4,5.1-29-2.4-13.7-12.2-11.9-14.6-25.6s7.5-15.4,5.1-29-12.2-11.9-14.6-25.6,7.5-15.4,5.1-29-12.2-11.9-14.6-25.6,7.5-15.4,5.1-29c-2.4-13.7-12.2-11.9-14.6-25.6-2.4-13.7,7.5-15.4,5.1-29s-12.2-11.9-14.6-25.6c-2.4-13.7,7.5-15.4,5.1-29-2.4-13.7-12.2-11.9-14.6-25.6-2.4-13.7,7.5-15.4,5.1-29s-12.2-11.9-14.6-25.6,7.5-15.4,5.1-29c-2.4-13.7-12.2-11.9-14.6-25.6-2.4-13.7,7.5-15.4,5.1-29s-12.2-11.9-14.6-25.6,7.5-15.4,5.1-29-12.2-11.9-14.6-25.6c-2.4-13.7,7.5-15.4,5.1-29s-12.2-11.9-14.6-25.6,7.5-15.4,5.1-29-12.2-11.9-14.6-25.6c-2.4-13.7,7.5-15.4,5.1-29s-12.2-11.9-14.6-25.6,7.3-15.3,5.1-29c-2.1-13.1-6.7-12.1-13.9-23.9Z"/>
  <g id="MASTER_RAW" data-name="MASTER RAW">
    <g>
      <path class="cls-4" d="M654.8,1774.3c4.5-28.4-11.8-47.1-26.1-56.2-4.1-2.6-9.4.9-8.6,5.8,1.5,9.4,1.3,23.3-8.3,36.2-6.7,9-11.6,19.2-13.3,30-4.5,28.4,11.8,47.1,26.1,56.2,4.1,2.6,9.4-.9,8.6-5.8-1.5-9.4-1.3-23.3,8.3-36.2,6.7-9,11.6-19.2,13.3-30Z"/>
      <path class="cls-2" d="M540.1,1634.8s-12.3-28.6-13.8-44.9c-.2-2.3-.6-4.6-1-6.8h0s6.5-18.5,6.5-18.5c5.4-15.4,3.4-32.2-5.3-46.1l-3-4.8c-.2-.4-.6-.6-.9-.9,4.3-3.5,9.3-6,14.4-7.1,2.4-.5,3.8-2.9,3.3-5.3l-.5-2.4c-.6-2.8-3.7-4.4-6.3-3.1-1.4.7-2.7,1.4-4,2.2,1.3-4.6,2-9.4,2.2-14.1.2-4.8-4.5-8.4-9.2-7.4l-1.2.3c-4,.9-6.7,4.9-5.8,8.9,2.1,9.2,1.6,19.1-3.8,27-.2.1-.4.2-.5.3l-18.5,17c-4.3,4-10.3,5.3-16.1,4-4.5-1-9.3-1.6-14.1-1.6h-23.4c-4.8,0-9.6.5-14.1,1.6-5.7,1.3-11.7,0-16.1-4l-18.5-17c-.2-.1-.4-.2-.5-.3-5.4-7.9-5.9-17.8-3.8-27,.9-4-1.8-8-5.8-8.9l-1.2-.3c-4.7-1-9.4,2.6-9.2,7.4.2,4.7.9,9.5,2.2,14.1-1.3-.8-2.7-1.5-4-2.2-2.6-1.3-5.7.3-6.3,3.1l-.5,2.4c-.5,2.4,1,4.7,3.3,5.3,5.1,1.1,10.1,3.5,14.4,7.1-.3.3-.7.5-.9.9l-3,4.8c-8.8,13.9-10.7,30.7-5.3,46.1l6.5,18.6h0c-.5,2.2-.8,4.5-1,6.8-1.5,16.2-13.8,44.9-13.8,44.9-3.5,12.4-3.6,25.2-.7,37.5-27.6,24.9-44.8,71.1-43.6,123.7-3.3-5.1-7.1-9.9-11.6-14.3-12.8-12.5-52.4,17.7-31.7,35.5,20.8,17.9,8.6,76.9,33.1,126.9,0,0,16.8-4.8,31.2-11.5,8.5,15.8,21.3,24.4,41.9,22.6,54.1-4.7,129.8,31.5,122.8-50.8-8.5-99.2,3.8-167.5-4.2-207.9,5,2.5,7.5,6,10.7,10.1,1.7,2.1,4.5,3,7.2,3s.5,0,.8,0c3-.2,5.6-1.7,7.3-4l4.8-6.7c13.4-18.8,17.6-42.2,11.3-64.2Z"/>
      <path class="cls-2" d="M1164.2,1721.9l-10.6-26.2c-8-19.9-27.3-32.9-48.8-32.9h-86.6c-17.9,0-32.6-14.1-33.3-32l-1.5-38.6c-.1-2.9.9-5.7,3-7.8,2-2.1,4.8-3.3,7.7-3.3s.7,0,1,0c8.4.8,16.2,4.5,22.1,10.5l11.8,12c2.9,3,6.8,4.6,10.9,4.6s7-1.2,9.7-3.5c2.3-1.8,3.6-4.6,3.8-7.5.1-2.9-1-5.7-3.1-7.7l-6.9-6.8c-.6-.6-1-1.4-1-2.3s.6-2.4,2-3c2.2-.9,4.5-1.3,6.8-1.3,5.3,0,10.4,2.3,13.9,6.3l24.1,27.6c2.2,2.5,5.4,3.9,8.7,3.9s1.7,0,2.4-.3c3.3-.7,6.1-2.8,7.7-5.9,1.6-3,1.8-6.5.5-9.7l-10.5-26.2c-8.1-20-27.2-32.9-48.8-32.9h-40.3c-15.4,0-28-12.1-28.6-27.5l-1.7-43.7c-.1-3.1,1-6,3.1-8.2,2.1-2.2,5-3.4,8-3.4s.4,0,.5,0h.8c8.1.5,15.7,4.1,20.9,10.2l17.3,19.9c2.2,2.6,5.3,4,8.7,4s1.7,0,2.4-.3c3.3-.7,6.1-2.9,7.7-5.9,1.6-3,1.8-6.5.5-9.7l-10.6-26.2c-8.1-20-27.2-32.9-48.8-32.9h-2.1c-6,0-10.9-4.7-11.2-10.8l-2.2-57.4c-.4-9.5-7.4-17.8-16.9-18.7-11-1-20.2,7.2-20.6,17.9l-2.2,58.1c-.2,6-5.2,10.8-11.2,10.8h-2.1c-21.5,0-40.7,12.9-48.8,32.9l-10.6,26.2c-1.2,3.2-1.1,6.7.5,9.7,1.6,3,4.4,5.2,7.7,5.9.8.2,1.6.3,2.5.3,3.4,0,6.5-1.4,8.7-4l17.3-19.9c5.2-6,12.8-9.7,20.9-10.1h.8c.2,0,.4,0,.5,0,3.1,0,5.9,1.2,8,3.4,2.1,2.2,3.2,5.1,3.1,8.2l-1.7,43.7c-.6,15.4-13.2,27.5-28.6,27.5h-40.3c-21.6,0-40.7,12.9-48.8,32.9l-10.6,26.3c-1.3,3.1-1.1,6.6.5,9.7,1.6,3,4.4,5.2,7.7,5.9.7.2,1.6.3,2.4.3,3.3,0,6.5-1.4,8.7-3.9l24.1-27.7c3.5-4,8.6-6.3,13.9-6.3s4.6.4,6.8,1.3c1.4.5,2,1.9,2,3s-.3,1.7-1,2.3l-6.9,6.8c-2.1,2-3.2,4.8-3.1,7.7.1,2.9,1.5,5.7,3.8,7.5,2.7,2.2,6.2,3.5,9.7,3.5s7.9-1.6,10.9-4.6l11.8-12c5.9-6,13.7-9.7,22.1-10.5.3,0,.7,0,1,0,2.9,0,5.6,1.2,7.7,3.3,2,2.1,3.1,4.9,3,7.8l-1.5,38.6c-.7,17.9-15.4,32-33.3,32h-86.6c-21.4,0-40.7,13-48.8,32.9l-10.6,26.2c-1.3,3.2-1.1,6.7.5,9.7,1.6,3,4.4,5.1,7.7,5.9.8.2,1.6.3,2.5.3,3.3,0,6.5-1.4,8.7-3.9l23.5-27c3.1-3.6,7.3-6.2,12-6.8,3.2-.4,6.3,0,9.3,1.2,1,.4,1.7,1.2,1.9,2.3.2,1.1-.1,2.2-.9,2.9l-6.9,6.8c-2.1,2-3.2,4.9-3,7.8.1,2.9,1.5,5.6,3.7,7.4,2.7,2.2,6.2,3.5,9.7,3.5s8-1.6,10.9-4.6l22.8-23.2c2.8-2.8,6.5-4.4,10.5-4.4s6.9,1.2,9.5,3.5c.5.4.7.9.7,1.5,0,.7-.3,1.3-.8,1.8l-8,7.5c-2.2,2.1-3.4,4.9-3.1,7.7.2,2.7,1.6,5.1,4,6.7,2.6,1.7,5.5,2.6,8.6,2.6s7-1.2,9.8-3.5l28-23.1c1.6-1.3,3.5-2,5.5-2s4.8,1,6.4,2.8c1.2,1.2,2.5,3.3,2.4,6.4l-6.3,164.6c-.1,3.3-4.3,4.7-6.4,2.2l-41.2-50.4c-7.7-9.4-22.4-8.1-28.3,2.5l-24.1,43.5c-3.8,6.8-13.6,6.8-17.3,0l-55.3-99.9c-5.9-10.6-20.6-11.9-28.3-2.5l-76.7,93.9c-5,6.1-12.7,9.3-20.5,8.7h-.1c-8.6-.8-16.6-3.6-22.5-8.1l-11.9-8.9c-7.3-5.4-16.9-8.8-27.3-9.7-17.7-1.4-35.7,1.3-51.1,7.8l-31,13c-7.2,3-15.1,5-23.3,5.9-14.7,1.6-29.6-1.4-41.1-8.1l-2.2-1.3c-4.6-2.7-10.3-4.1-16.2-4l-18.7.2c-7.9,0-15.3-2.5-20.1-7-2.4-2.3-7.8-3.7-13.2-4.6-8.6-1.5-15-8.9-15.2-17.6l-11.8-475.8c0-4,3.2-7.3,7.2-7.2,10.7,0,21.1,3.8,29.3,10.6l29,23.9c5.1,4.2,12.4,4.6,17.9.8,4.4-3.1,4.5-9,.6-12.6l-8.9-8.3c-2-1.8-2.1-5,0-6.7,7.4-6.3,18.3-5.8,25.1,1.1l25.2,25.6c5.4,5.5,14.1,5.9,20,1.1h0c4.2-3.5,4.5-9.9.6-13.7l-7.7-7.5c-2.8-2.7-2.1-7.6,1.6-9.1,8.9-3.7,19.2-1.3,25.6,6l26.3,30.2c2.2,2.6,5.5,4.2,8.9,3.9,7.4-.5,11.9-8,9.2-14.6l-11.7-29c-8.5-21.2-29.1-35.1-51.9-35.1h-126c-11.9,0-21.6-9.5-21.9-21.4l-.6-24.5c0-2.5,2.1-4.5,4.6-4.3,10.7,1,20.7,5.8,28.3,13.4l12,12.2c2.9,2.9,6.7,4.4,10.5,4.4s6.7-1.1,9.4-3.4c4.3-3.5,4.6-9.9.6-13.7l-7.6-7.6c-1.1-1.1-1.7-2.6-1.7-4,0-2.2,1.3-4.3,3.5-5.2,8.8-3.5,19-1,25.3,6.1l26.6,30.6c2.1,2.3,5,3.6,8,3.6s1.5,0,2.2-.2c6.4-1.4,10.1-8.3,7.6-14.3l-11.7-29c-8.5-21.1-29.1-35.1-51.9-35.1h-49.2c-9.9,0-18-7.9-18.2-17.8l-.6-26.8c-.2-7.5,5.6-14.1,13.2-14.2,9.4-.2,18.5,3,25.7,9l31,25.6c5.1,4.2,12.4,4.6,17.9.8,4.4-3.1,4.5-9,.6-12.6l-8.9-8.3c-2-1.8-2.1-5,0-6.7,7.4-6.3,18.3-5.8,25.1,1.1l22.7,23c3.9,3.9,9.1,6.4,14.7,6.2,11.4-.3,14-10.8,8.3-16.5l-7.5-7.4c-2.8-2.7-2.1-7.6,1.6-9.1,8.9-3.7,19.2-1.3,25.6,6l26.3,30.2c2.2,2.6,5.5,4.2,8.9,3.9,7.4-.5,11.9-8,9.2-14.6l-11.7-29c-8.5-21.2-29.1-35.1-51.9-35.1h-126.8c-13.9,0-25.3-11.1-25.6-25l-.4-17.7c-.1-4.7,3.9-8.4,8.5-8l7.5.7c9.6.9,18.6,5.2,25.4,12l13.2,13.4c2.9,2.9,6.7,4.4,10.5,4.4s6.7-1.1,9.4-3.4c4.3-3.5,4.6-9.9.6-13.7l-7.6-7.6c-1.1-1.1-1.7-2.6-1.7-4,0-2.2,1.3-4.3,3.5-5.2,8.8-3.5,19-1,25.3,6.1l26.6,30.6c2.1,2.3,5,3.6,8,3.6s1.5,0,2.3-.2c6.4-1.4,10.1-8.3,7.6-14.3l-11.7-29c-8.5-21.1-29.1-35.1-51.9-35.1h-52.1c-13.7,0-24.9-10.9-25.2-24.6l-.5-19c-.1-4.7,3.8-8.5,8.5-8.3l12,.6c9.5.5,18.4,4.6,24.6,11.5l19.1,21.2c2.1,2.3,5,3.6,8,3.6s1.5,0,2.2-.2c6.4-1.4,10.1-8,7.6-13.9l-11.7-27.9c-8.6-20.4-29-33.8-51.8-33.8-11,0-20.1-8.7-20.4-19.8l-.2-22.3c-.1-12.8-9.5-24.1-22.3-25.4-14.6-1.4-27,10-27.2,24.3l-.2,23.4c-.3,11-9.3,19.7-20.4,19.8-22.8,0-43.2,13.4-51.8,33.8l-11.7,27.9c-2.4,5.9,1.2,12.5,7.6,13.9.7.2,1.5.2,2.2.2,3.1,0,5.9-1.2,8-3.6l19.1-21.2c6.2-6.9,15.1-11,24.6-11.5l12-.6c4.7-.2,8.6,3.6,8.5,8.3l-2.7,110.9c-.3,13.9-11.7,25-25.6,25h-126.8c-22.9,0-43.4,13.9-51.9,35.1l-11.5,28.5c-2,5-.3,11,4.3,13.6,4.6,2.6,10.1,1.5,13.3-2.2l26.6-30.5c6.3-7.3,16.6-9.7,25.6-6,3.6,1.5,4.3,6.3,1.6,9.1l-7.5,7.4c-4,3.9-3.9,10.3.4,13.8,5.9,4.9,14.6,4.4,20-1l25.2-25.6c6.8-6.9,17.7-7.4,25.1-1.1,2,1.7,1.9,4.9,0,6.7l-8.9,8.3c-3.9,3.7-3.8,9.6.6,12.6,5.5,3.8,12.8,3.5,17.9-.8l31-25.6c7.2-6,16.3-9.1,25.7-9,7.5.1,13.3,6.7,13.2,14.2l-.6,26.8c-.2,9.9-8.3,17.8-18.2,17.8h-49.2c-22.8,0-43.4,13.9-51.9,35.1l-11.7,29c-2.5,6,1.1,12.9,7.6,14.3.7.2,1.5.2,2.2.2,3.1,0,6-1.3,8-3.6l26.6-30.6c6.3-7.2,16.4-9.6,25.3-6.1,2.3.9,3.5,3.1,3.5,5.2s-.6,2.9-1.7,4l-7.6,7.6c-3.9,3.8-3.6,10.2.6,13.7,2.7,2.3,6.1,3.4,9.4,3.4s7.6-1.5,10.5-4.4l12-12.2c7.5-7.7,17.6-12.4,28.3-13.4,2.5-.2,4.7,1.8,4.6,4.3l-.6,24.5c-.3,11.9-10,21.4-21.9,21.4h-126c-22.9,0-43.4,13.9-51.9,35.1l-11.5,28.5c-2,5-.3,11,4.3,13.6,4.6,2.6,10.1,1.5,13.3-2.2l26.6-30.5c6.3-7.3,16.6-9.7,25.6-6,3.6,1.5,4.3,6.3,1.6,9.1l-7.7,7.5c-3.9,3.8-3.6,10.2.6,13.7h0c5.9,4.9,14.6,4.4,20-1.1l25.2-25.6c6.8-6.9,17.7-7.4,25.1-1.1,2,1.7,1.9,4.9,0,6.7l-8.9,8.3c-3.9,3.7-3.8,9.6.6,12.6,5.5,3.8,12.8,3.5,17.9-.8l29-23.9c8.3-6.8,18.6-10.6,29.3-10.6,4,0,7.3,3.2,7.2,7.2l-3.5,134c-.2,10.2-8.6,18.3-18.8,18.3h-95c-22.8,0-43.4,13.9-51.9,35.1l-11.7,29c-2.5,6,1.1,12.9,7.6,14.3.7.2,1.5.2,2.2.2,3.1,0,6-1.3,8-3.6l26.6-30.6c6.3-7.2,16.4-9.6,25.3-6.1,2.3.9,3.5,3.1,3.5,5.2s-.6,2.9-1.7,4l-7.6,7.6c-3.9,3.8-3.6,10.2.6,13.7,2.7,2.3,6.1,3.4,9.4,3.4s7.6-1.5,10.5-4.4l13.2-13.4c6.8-6.9,15.9-11.2,25.6-12.1l32.8-1c10.8-.3,19.6,8.4,19.3,19.2l-5.7,235.6c-.5,18.7-8.5,36.4-22.3,49.1h0c-22.6,20.8-35.5,50.2-35.5,81v402.3c0,24.6,19.9,44.5,44.5,44.5h760.9c24.6,0,44.5-19.9,44.5-44.5v-405.2c0-12-5.3-23.5-14.5-31.2h0c-8.8-7.4-14-18.2-14.4-29.7l-6.1-159.1c-.1-3.1,1.2-5.2,2.4-6.4,1.7-1.8,4-2.8,6.4-2.8s3.9.7,5.5,2l28,23.1c2.7,2.3,6.2,3.5,9.8,3.5s6.1-.9,8.6-2.6c2.4-1.6,3.8-4,4-6.7.2-2.8-.9-5.7-3.1-7.7l-8-7.5c-.5-.5-.8-1.1-.8-1.8,0-.6.3-1.1.7-1.5,2.7-2.3,6.1-3.5,9.5-3.5s7.7,1.6,10.5,4.4l22.8,23.2c2.9,2.9,6.8,4.6,10.9,4.6s7-1.2,9.7-3.5c2.2-1.8,3.6-4.6,3.7-7.4.1-2.9-1-5.7-3-7.8l-6.9-6.8c-.8-.8-1.1-1.8-.9-2.9.2-1.1.9-1.9,1.9-2.3,3-1.2,6.1-1.6,9.3-1.2,4.7.6,8.9,3.2,12,6.8l23.5,27c2.2,2.5,5.3,3.9,8.7,3.9s1.6,0,2.5-.3c3.3-.7,6.1-2.9,7.7-5.9,1.6-3,1.8-6.5.5-9.7ZM852.8,1866.7c1.8,17.2,1.9,30.1,1.2,39.6-.3,3.7-3.3,6.5-6.9,6.5h-13.2c-5.3,0-8.7-5.7-6-10.4,6-10.6,12.4-23.5,17.1-36.7,1.5-4.1,7.4-3.4,7.9.9ZM742.1,1820.7c10.3,33.6,30.7,67.4,41.5,84.1,2.2,3.4-.2,8-4.3,8h-32.9c-5.8,0-10.8-4.1-11.9-9.9-2.5-13.7-4.6-39.4.8-81.6.5-3.8,5.7-4.2,6.8-.6Z"/>
    </g>
  </g>
  <path class="cls-2" d="M2397.6,1879.1c-8.1-.1-32.8,1-50.5,3.7-11.8,1.8-23.6-2.7-31.1-11.9l-139.5-170.8c-7-8.6-20.6-7.4-26,2.3l-90.2,162.9c-5.2,9.4-18.3,10.6-25.2,2.3l-69.3-84.8c-7-8.6-20.6-7.4-26,2.3l-45.7,82.4c-5.8,10.5-20.9,10.5-26.7,0l-100.4-181.1c-5.4-9.7-18.9-11-26-2.3l-181.8,222.5c-5.3,6.5-15.7,5.5-19.5-2.1-1.2-2.3-2.5-4.6-3.6-7-21-44.2-36.1-36.6-62.4-43.3-22-5.6-97-20.6-119.1-16.8-17.3,2.9-47.2,23.6-62.9,31.4-21.3,10.7-16.8,84.8-85.3,58.2-37.1-21.1-82.1-23.3-121.1-5.9h0c-15.7,7-33,9.6-50,7.2s-12.5-1.3-19.4-1.3c-67.8,0-44.1,50.8-112,50.8s-67.8-34.2-135.7-34.2-67.8,22.1-135.7,22.1-67.8,11.4-135.7,11.4-67.8-15.2-135.7-15.2-109.6-58-177.5-58-57.1,50.2-124.9,50.2-27.4-11-76.5-16.2c-33.1-3.5-36.9,14.8-70.2,14.8s-35.7-28.2-69-28.2-36.8,5.7-70,5.7-27.3,26.5-60.6,26.5-22-27.9-52.4-41.3c-28.6-12.6-84.2-26.4-111.1-21.2-56.6,11-24,40.6-47.9,43.8-30,4-38,2.4-49-1.1-9.9-3.1-18.7-9.1-25.3-17.2-22-26.9-73-89.3-97.4-119.3-6.5-8-19-6.8-24,2.2-12.4,22.4-33.3,60-47.3,85.4s-23.1,11.6-29.5,0l-127.2-229.6c-11.4-20.6-40.1-23.2-55-4.9l-222.6,272.5c-4.3,5.3-10.7,8.3-17.5,8.3h0c-9.3,0-17.8-5-22.3-13.2l-81.1-146.5c-6.1-11.1-21.5-12.5-29.6-2.7l-106.9,130.9c-9.2,11.2-23.9,16.2-38.1,13.1-22.2-4.8-45.3-3.6-67,3.3l-89.6,28.7-136.7,1761.9H2775.4l23.7-1823.2-401.4-7.3ZM-1260.8,1944h-44c-3.8,0-7.1-2.7-7.7-6.5-2.8-16.4-5.2-45.3-.5-90.6.9-8.2,12.3-9.7,15.1-1.9,12.3,33.7,30.8,66.2,43.8,87.1,3.3,5.2-.5,12-6.7,12ZM-840.5,1919.4l-71.6-.7c-6.4,0-11.8-5.1-12.1-11.5-1.8-30.3-.3-79.4,13.7-151.9,2.5-12.8,20.6-13.4,23.9-.8,14.3,54.6,38.2,108.7,57.3,147.2,4.1,8.2-2,17.8-11.1,17.7ZM-680,1919.7c-.4,2.4-2.3,4.2-4.7,4.3-10.9.7-22.7,1.1-34.8,1.3-4.1,0-6.6-4.4-4.4-7.8,10.1-16.4,24.4-41.7,33.5-67.7,1.8-5.2,9.3-4.3,9.9,1.1,3.7,33.5,2.4,55.6.4,68.8ZM1810.1,1910.5c-16.1.2-30.8.3-42.7.4-8.3,0-15.4-5.8-16.9-13.9-3.8-20.2-7.2-56.7-1.8-114.7,1.2-12.3,18.2-14.7,22.6-3.1,15.4,40.5,37.2,79.1,53.3,105.1,7,11.4-1.1,26-14.5,26.2ZM1952.7,1893.4c-.9,3.8-4.3,6.4-8.1,6.4h-27.3c-6.6,0-10.6-7.3-7.1-12.9,8.7-13.7,22.3-36.7,31.7-61.1,2.6-6.6,12.2-5.2,12.9,1.8,3.3,35.8.2,56.4-2.1,65.8ZM2158.3,1884c-.7,4.1-3.6,7.4-7.6,8.5-18.1,4.8-33.8,4.6-48.7,1.6-6.8-1.4-10.1-9.2-6.5-15.1,14.2-22.9,34-58,47-94.2,2.9-8.1,14.8-6.6,15.7,2,5.1,47.9,2.9,79.1,0,97.4Z"/>
</svg>